<svg width="365" height="147" viewBox="0 0 365 147" fill="none" xmlns="http://www.w3.org/2000/svg">
<g filter="url(#filter0_d_10_349)">
<path d="M60.21 69.24C60.21 76.44 58.86 82.47 56.16 87.33C53.52 92.19 49.71 95.85 44.73 98.31C39.75 100.77 33.72 102 26.64 102H8.73V37.74H28.53C35.01 37.74 40.62 38.94 45.36 41.34C50.1 43.74 53.76 47.28 56.34 51.96C58.92 56.58 60.21 62.34 60.21 69.24ZM51.66 69.51C51.66 63.81 50.7 59.13 48.78 55.47C46.92 51.81 44.16 49.11 40.5 47.37C36.9 45.57 32.52 44.67 27.36 44.67H16.83V95.07H25.56C34.26 95.07 40.77 92.94 45.09 88.68C49.47 84.36 51.66 77.97 51.66 69.51ZM80.4122 38.73C79.8722 40.83 79.1822 43.11 78.3422 45.57C77.5022 48.03 76.5722 50.49 75.5522 52.95C74.5922 55.35 73.6322 57.63 72.6722 59.79H66.8222C67.2422 58.11 67.6622 56.31 68.0822 54.39C68.5622 52.47 68.9822 50.55 69.3422 48.63C69.7622 46.65 70.1222 44.73 70.4222 42.87C70.7822 41.01 71.0822 39.3 71.3222 37.74H79.7822L80.4122 38.73ZM118.555 102L97.4046 45.66H97.0446C97.1646 46.86 97.2546 48.39 97.3146 50.25C97.4346 52.11 97.5246 54.15 97.5846 56.37C97.6446 58.53 97.6746 60.75 97.6746 63.03V102H90.2046V37.74H102.175L121.975 90.39H122.335L142.495 37.74H154.375V102H146.365V62.49C146.365 60.39 146.395 58.32 146.455 56.28C146.515 54.18 146.605 52.23 146.725 50.43C146.845 48.57 146.935 47.01 146.995 45.75H146.635L125.215 102H118.555ZM290.862 79.32C290.862 83.76 289.962 87.78 288.162 91.38C286.362 94.92 283.602 97.74 279.882 99.84C276.222 101.88 271.542 102.9 265.842 102.9C257.862 102.9 251.772 100.74 247.572 96.42C243.432 92.04 241.362 86.28 241.362 79.14V37.74H249.462V79.41C249.462 84.63 250.842 88.68 253.602 91.56C256.422 94.44 260.652 95.88 266.292 95.88C270.192 95.88 273.342 95.19 275.742 93.81C278.202 92.37 280.002 90.42 281.142 87.96C282.282 85.44 282.852 82.56 282.852 79.32V37.74H290.862V79.32ZM353.092 37.74L330.142 102H322.042L299.092 37.74H307.552L322.042 78.96C322.702 80.7 323.272 82.38 323.752 84C324.232 85.62 324.652 87.18 325.012 88.68C325.432 90.12 325.792 91.56 326.092 93C326.392 91.56 326.722 90.09 327.082 88.59C327.502 87.09 327.952 85.53 328.432 83.91C328.972 82.29 329.542 80.58 330.142 78.78L344.542 37.74H353.092Z" fill="#BA2025"/>
</g>
<path d="M168.362 62.7759C178.075 55.1646 203.328 44.5088 226.638 62.7759" stroke="#BA2025" stroke-width="4"/>
<path d="M197.5 39C214.345 39 228 52.6553 228 69.5C228 86.3447 214.345 100 197.5 100C180.655 100 167 86.3447 167 69.5C167 52.6553 180.655 39 197.5 39Z" stroke="#BA2025" stroke-width="4"/>
<path d="M197.5 47.4656C209.669 47.4656 219.535 57.3306 219.535 69.4998C219.535 81.6691 209.669 91.5349 197.5 91.5349C185.331 91.5347 175.466 81.669 175.466 69.4998C175.466 57.3307 185.331 47.4657 197.5 47.4656Z" fill="white" stroke="#BA2025" stroke-width="3"/>
<path d="M197.5 53.0688C206.574 53.0688 213.931 60.4251 213.931 69.4995C213.931 78.5741 206.574 85.9312 197.5 85.9312C188.425 85.9309 181.069 78.574 181.069 69.4995C181.069 60.4252 188.425 53.0691 197.5 53.0688Z" fill="white" stroke="#BA2025" stroke-width="3"/>
<path d="M197.5 58.6726C203.479 58.6726 208.328 63.52 208.328 69.4998C208.328 75.4797 203.48 80.3279 197.5 80.3279C191.52 80.3276 186.672 75.4795 186.672 69.4998C186.673 63.5202 191.52 58.6728 197.5 58.6726Z" fill="#BA2025" stroke="#BA2025" stroke-width="3"/>
<ellipse cx="202.543" cy="64.4568" rx="3.92242" ry="3.92241" fill="white"/>
<defs>
<filter id="filter0_d_10_349" x="4.72998" y="37.74" width="352.362" height="73.16" filterUnits="userSpaceOnUse" color-interpolation-filters="sRGB">
<feFlood flood-opacity="0" result="BackgroundImageFix"/>
<feColorMatrix in="SourceAlpha" type="matrix" values="0 0 0 0 0 0 0 0 0 0 0 0 0 0 0 0 0 0 127 0" result="hardAlpha"/>
<feOffset dy="4"/>
<feGaussianBlur stdDeviation="2"/>
<feComposite in2="hardAlpha" operator="out"/>
<feColorMatrix type="matrix" values="0 0 0 0 0 0 0 0 0 0 0 0 0 0 0 0 0 0 0.25 0"/>
<feBlend mode="normal" in2="BackgroundImageFix" result="effect1_dropShadow_10_349"/>
<feBlend mode="normal" in="SourceGraphic" in2="effect1_dropShadow_10_349" result="shape"/>
</filter>
</defs>
</svg>
