<svg width="65" height="65" viewBox="0 0 65 65" fill="none" xmlns="http://www.w3.org/2000/svg">
<path d="M3.36212 25.7759C13.0748 18.1646 38.3277 7.50881 61.6381 25.7759" stroke="#BA2025" stroke-width="4"/>
<path d="M32.5 2C49.3447 2 63 15.6553 63 32.5C63 49.3447 49.3447 63 32.5 63C15.6553 63 2 49.3447 2 32.5C2 15.6553 15.6553 2.00003 32.5 2Z" stroke="#BA2025" stroke-width="4"/>
<path d="M32.4998 10.4656C44.669 10.4656 54.5348 20.3306 54.5349 32.4998C54.5349 44.6691 44.6691 54.5349 32.4998 54.5349C20.3306 54.5347 10.4656 44.669 10.4656 32.4998C10.4658 20.3307 20.3307 10.4657 32.4998 10.4656Z" fill="white" stroke="#BA2025" stroke-width="3"/>
<path d="M32.4998 16.0688C41.5743 16.0688 48.9312 23.4251 48.9314 32.4995C48.9314 41.5741 41.5744 48.9312 32.4998 48.9312C23.4253 48.9309 16.0691 41.574 16.0691 32.4995C16.0693 23.4252 23.4254 16.0691 32.4998 16.0688Z" fill="white" stroke="#BA2025" stroke-width="3"/>
<path d="M32.4996 21.6726C38.4794 21.6726 43.3275 26.52 43.3278 32.4998C43.3278 38.4797 38.4796 43.3279 32.4996 43.3279C26.5199 43.3276 21.6725 38.4795 21.6725 32.4998C21.6727 26.5202 26.5201 21.6728 32.4996 21.6726Z" fill="#BA2025" stroke="#BA2025" stroke-width="3"/>
<ellipse cx="37.5431" cy="27.4568" rx="3.92242" ry="3.92241" fill="white"/>
</svg>
